<?xml version="1.0" standalone="no"?>
<!DOCTYPE svg PUBLIC "-//W3C//DTD SVG 20010904//EN"
 "http://www.w3.org/TR/2001/REC-SVG-20010904/DTD/svg10.dtd">
<svg version="1.0" xmlns="http://www.w3.org/2000/svg"
 width="332.000000pt" height="332.000000pt" viewBox="0 0 332.000000 332.000000"
 preserveAspectRatio="xMidYMid meet">
<metadata>
Created by potrace 1.14, written by Peter Selinger 2001-2017
</metadata>
<g transform="translate(0.000000,332.000000) scale(0.100000,-0.100000)"
fill="#000000" stroke="none">
<path d="M1442 3307 c-7 -10 -37 -60 -87 -150 -5 -10 -60 -104 -121 -210 -144
-247 -363 -628 -538 -932 -77 -132 -164 -283 -194 -335 -74 -128 -322 -560
-336 -585 -6 -11 -13 -22 -16 -25 -3 -3 -11 -15 -18 -27 -13 -25 -9 -28 121
-102 l58 -33 17 23 c9 12 26 39 37 58 11 20 34 61 52 91 17 30 40 71 51 90 11
19 74 130 142 245 67 116 131 226 141 245 38 69 61 105 73 112 12 8 212 3 261
-7 244 -48 419 -150 524 -305 21 -30 52 -84 71 -120 65 -130 74 -146 106 -196
100 -152 278 -244 484 -250 58 -2 111 0 117 4 13 8 55 80 388 657 136 237 256
444 266 461 l19 32 -102 0 c-198 -1 -352 59 -466 181 -44 47 -102 152 -142
256 -13 33 -32 72 -42 87 -10 14 -18 31 -18 37 0 6 -37 48 -82 94 -71 72 -98
91 -188 135 -153 75 -281 105 -447 104 -46 -1 -82 2 -79 6 2 4 22 37 45 75 22
37 41 69 41 72 0 3 14 28 32 56 l31 51 -22 17 c-13 10 -39 26 -59 36 -21 11
-53 29 -74 42 -27 17 -39 19 -46 10z m53 -956 c172 -44 333 -155 412 -283 l37
-60 18 24 c10 13 18 29 18 36 0 6 5 12 10 12 6 0 10 5 10 10 0 6 16 36 35 66
19 30 35 57 35 60 0 8 82 145 85 142 2 -2 26 -48 54 -103 32 -63 73 -125 112
-167 71 -80 195 -165 296 -204 l72 -28 -18 -30 c-11 -17 -53 -89 -94 -161 -82
-144 -85 -146 -176 -134 -153 21 -292 147 -399 362 -19 40 -41 80 -47 90 -13
18 -15 14 -136 -200 -10 -17 -29 -50 -43 -72 -15 -22 -26 -46 -26 -53 0 -6
-26 14 -57 45 -82 80 -154 132 -247 177 -139 67 -223 90 -438 118 l-57 7 43
75 c70 122 159 275 162 279 20 24 233 19 339 -8z"/>
</g>
</svg>
